<svg width="35" height="32" viewBox="0 0 35 32" fill="none" xmlns="http://www.w3.org/2000/svg">
<path d="M26.0417 22.8333L32.875 15.9999M32.875 15.9999L26.0417 9.16659M32.875 15.9999H8.95833M19.2083 22.8333V24.5416C19.2083 25.9008 18.6684 27.2044 17.7073 28.1655C16.7461 29.1266 15.4426 29.6666 14.0833 29.6666H7.25C5.89077 29.6666 4.5872 29.1266 3.62608 28.1655C2.66495 27.2044 2.125 25.9008 2.125 24.5416V7.45825C2.125 6.09902 2.66495 4.79545 3.62608 3.83433C4.5872 2.87321 5.89077 2.33325 7.25 2.33325H14.0833C15.4426 2.33325 16.7461 2.87321 17.7073 3.83433C18.6684 4.79545 19.2083 6.09902 19.2083 7.45825V9.16659" stroke="white" stroke-width="3" stroke-linecap="round" stroke-linejoin="round"/>
</svg>
