<svg width="235" height="186" viewBox="0 0 235 186" fill="none" xmlns="http://www.w3.org/2000/svg">
<path d="M104.011 17.5201C104.015 17.4762 104.035 17.4354 104.068 17.4058C104.101 17.3762 104.143 17.3598 104.187 17.36L113.693 17.3735C113.74 17.3733 113.786 17.3911 113.821 17.4232C113.856 17.4553 113.878 17.4995 113.883 17.5471L116.616 46.2948C116.621 46.3421 116.615 46.3898 116.601 46.435C116.586 46.4801 116.562 46.5216 116.53 46.5569C116.498 46.5921 116.459 46.6203 116.416 46.6397C116.372 46.659 116.325 46.669 116.278 46.6691H111.902C111.611 46.6691 111.442 46.5353 111.395 46.2678L110.786 42.7462C110.732 42.4335 110.561 42.2517 110.272 42.2006C109.74 42.1074 109.158 42.0375 108.526 41.9909C108.513 41.9894 108.379 41.9706 108.125 41.9345C107.768 41.8834 107.505 41.9909 107.333 42.2569C107.246 42.3922 107.181 42.6387 107.137 42.9964C107.003 44.1297 106.833 45.2487 106.625 46.3534C106.609 46.4387 106.564 46.5156 106.499 46.5708C106.434 46.626 106.353 46.656 106.269 46.6556L101.557 46.6014C101.515 46.6008 101.472 46.5911 101.433 46.5727C101.394 46.5544 101.359 46.5278 101.331 46.4948C101.302 46.4618 101.28 46.423 101.267 46.3808C101.254 46.3386 101.249 46.294 101.253 46.2497L104.011 17.5201ZM110.076 37.1729C110.152 37.1223 110.214 37.0521 110.254 36.9697C110.295 36.8873 110.313 36.7955 110.306 36.704C110.009 32.8923 109.666 29.1731 109.275 25.5462C109.274 25.5282 109.24 25.1427 109.174 24.3897C109.122 23.8215 109.039 23.2519 108.923 22.6807C108.871 22.4237 108.803 22.4192 108.72 22.6672C108.69 22.7559 108.651 22.8551 108.603 22.9648C108.558 23.0655 108.533 23.1669 108.529 23.2692C108.308 28.5012 108.009 32.7691 107.633 36.0727C107.596 36.4049 107.622 36.6837 107.712 36.9092C107.802 37.1331 107.999 37.2947 108.303 37.3939C108.943 37.6043 109.534 37.5307 110.076 37.1729Z" fill="white"/>
<path d="M124.821 42.399C124.69 43.0634 124.616 43.7352 124.6 44.4146C124.58 45.1165 124.498 45.7478 124.354 46.3084C124.327 46.4108 124.268 46.5014 124.187 46.5659C124.105 46.6304 124.005 46.6652 123.903 46.6646L119.302 46.6218C119.01 46.6188 118.879 46.4685 118.907 46.1709L121.724 17.572C121.729 17.5268 121.75 17.4849 121.783 17.4544C121.816 17.424 121.86 17.4072 121.905 17.4074L131.187 17.3623C131.278 17.3617 131.366 17.3949 131.435 17.4555C131.504 17.5162 131.548 17.6001 131.559 17.6915C131.829 19.7942 132.065 21.9556 132.268 24.1755C132.935 31.4532 133.615 38.8045 134.309 46.2295C134.313 46.2745 134.308 46.3198 134.294 46.3628C134.28 46.4058 134.258 46.4456 134.228 46.4798C134.199 46.5141 134.163 46.5421 134.122 46.5622C134.082 46.5823 134.038 46.5942 133.993 46.597C132.337 46.6992 130.83 46.7082 129.471 46.6241C129.155 46.6045 128.972 46.4384 128.921 46.1258C128.754 45.0842 128.625 44.111 128.535 43.2062C128.496 42.8199 128.41 42.5554 128.278 42.4126C128.107 42.2292 127.873 42.139 127.577 42.142C127.313 42.1465 127.173 42.148 127.155 42.1465C126.417 42.109 125.684 42.1495 124.956 42.2683C124.923 42.2736 124.892 42.289 124.868 42.3124C124.844 42.3358 124.827 42.366 124.821 42.399ZM126.537 23.2106C126.179 26.7442 125.888 30.2839 125.664 33.8295C125.663 33.8445 125.611 34.3225 125.508 35.2634C125.447 35.827 125.447 36.3922 125.508 36.9588C125.512 36.9916 125.525 37.0224 125.548 37.0465C125.57 37.0705 125.6 37.0865 125.633 37.0918C126.165 37.1775 126.796 37.1843 127.527 37.1121C127.62 37.1024 127.705 37.0572 127.765 36.9862C127.826 36.9151 127.856 36.8237 127.849 36.7311C127.553 32.3032 127.188 27.8234 126.753 23.2918C126.749 23.2422 126.738 23.1971 126.72 23.1565C126.623 22.934 126.562 22.9521 126.537 23.2106Z" fill="white"/>
<path d="M56.1114 67.6521C56.1023 68.076 56.1595 68.4608 56.2828 68.8065C58.5335 75.1087 59.9634 81.5942 60.5723 88.2632C60.655 89.1635 60.6866 90.0661 60.667 90.9709C60.6535 91.5736 60.5077 92.1305 60.2295 92.6415C60.0521 92.9677 59.8341 93.1826 59.5755 93.2863C59.2688 93.4081 58.938 93.4043 58.5832 93.2751C58.2283 93.1458 57.9006 92.9662 57.5998 92.7362C57.012 92.2868 56.4617 91.7976 55.949 91.2685C55.5175 90.8236 55.0619 90.2495 54.5823 89.546C53.1314 87.4238 51.8354 85.2083 50.6942 82.8996C46.4197 74.2512 43.0661 65.2571 40.6334 55.9172C39.4321 51.3089 39.0389 46.6285 39.4539 41.8759C39.5125 41.192 39.8102 40.7787 40.347 40.6359C40.6838 40.5457 41.0619 40.6036 41.4814 40.8095C41.8377 40.9824 42.17 41.1996 42.4782 41.4611C43.9291 42.6966 45.1312 44.141 46.0844 45.7943C49.2568 51.2999 52.024 56.9671 54.3861 62.7959C54.4125 62.8611 54.4618 62.9144 54.5246 62.9456C54.5874 62.9768 54.6593 62.9837 54.7266 62.9649C58.2223 61.9925 61.7015 60.99 65.1641 59.9574C65.9504 59.7214 66.2466 59.16 66.0526 58.2732C65.8963 57.5518 65.8286 56.8769 65.8497 56.2487C65.8525 56.1582 65.8774 56.0699 65.9222 55.9913C65.967 55.9127 66.0304 55.8462 66.1068 55.7977C66.403 55.6099 66.5999 55.6129 66.6976 55.8068C66.7337 55.8804 66.7533 56.0292 66.7563 56.2532C66.7728 57.6705 67.0555 59.1285 67.6043 60.627C67.7215 60.9456 67.617 61.1538 67.2908 61.2515C63.0584 62.517 58.7718 63.8081 54.4312 65.1248C54.0222 65.2495 53.7403 65.4059 53.5855 65.5937C53.3765 65.8448 53.2517 66.1641 53.2111 66.5519C53.157 67.069 53.3682 67.3741 53.8448 67.4673C54.2011 67.5364 54.7409 67.4462 55.4641 67.1967C60.0799 65.602 64.7032 64.3222 69.3341 63.3572C69.382 63.3475 69.4315 63.3475 69.4794 63.3573C69.5274 63.3672 69.5727 63.3866 69.6128 63.4144C69.6529 63.4423 69.6869 63.478 69.7126 63.5193C69.7383 63.5606 69.7553 63.6067 69.7626 63.6548C70.0663 65.714 70.6617 67.6236 71.5487 69.3836C71.7232 69.7308 71.8833 70.302 72.0291 71.0971C72.1058 71.5209 72.1757 72.1101 72.2389 72.8647C72.9786 81.5973 75.07 89.9954 78.513 98.0592C78.8183 98.7716 79.1092 99.4901 79.3858 100.215C79.6835 100.992 79.7369 102.008 79.546 103.265C79.0528 106.513 79.4272 109.648 80.6691 112.669C80.9863 113.443 81.3156 114.212 81.6569 114.975C82.2989 116.407 82.7018 117.897 82.8657 119.444C83.0071 120.775 83.0777 121.442 83.0777 121.443C83.9573 126.847 86.6809 131.067 91.2486 134.105C91.5478 134.305 91.7575 134.519 91.8778 134.747C92.0192 135.019 92.1206 135.311 92.1823 135.622C92.8754 139.198 94.4098 142.357 96.7853 145.1C97.3987 145.81 98.0332 146.398 98.6888 146.866C98.9308 147.038 99.0932 147.268 99.1759 147.555C99.5127 148.743 99.8653 149.924 100.234 151.097C100.719 152.646 100.844 154.222 100.608 155.827C100.422 157.105 100.319 158.431 100.301 159.807C100.297 160.154 100.459 160.385 100.788 160.499C101.56 160.766 102.145 160.507 102.545 159.721C102.646 159.524 102.708 159.021 102.732 158.21C102.761 157.28 102.899 156.37 103.145 155.48C103.228 155.181 103.356 154.986 103.529 154.894C103.735 154.784 103.941 154.812 104.147 154.977C104.25 155.06 104.365 155.213 104.489 155.435C105.256 156.795 105.736 157.613 105.928 157.888C106.134 158.184 106.295 158.195 106.411 157.922C106.424 157.892 106.43 157.857 106.427 157.822C106.424 157.786 106.413 157.75 106.395 157.717C103.723 152.635 101.93 147.256 101.014 141.581C100.93 141.065 100.78 140.589 100.565 140.152C100.554 140.128 100.537 140.109 100.515 140.094C100.494 140.08 100.469 140.071 100.443 140.069C100.418 140.067 100.392 140.072 100.369 140.083C100.345 140.094 100.325 140.11 100.31 140.131C100.167 140.337 100.104 140.557 100.119 140.79C100.129 140.938 100.134 141.019 100.134 141.031C100.142 142.089 100.225 143.195 100.382 144.35C100.441 144.764 100.303 144.846 99.9675 144.593C99.6608 144.362 99.3879 144.12 99.1488 143.867C97.4033 142.024 96.1621 139.886 95.4254 137.453C95.1908 136.682 95.1254 135.861 95.2292 134.991C95.2833 134.528 95.478 134.173 95.8133 133.927C95.8401 133.907 95.8725 133.897 95.9062 133.896C95.9399 133.895 95.9735 133.904 96.0027 133.922C96.3606 134.142 97.0469 134.625 98.0618 135.372C100.652 137.276 103.533 138.561 106.704 139.225C106.734 139.231 106.761 139.244 106.784 139.264C106.807 139.283 106.825 139.308 106.836 139.336C106.847 139.364 106.851 139.394 106.847 139.424C106.843 139.454 106.832 139.482 106.815 139.507C106.52 139.923 106.236 140.357 105.962 140.808C105.66 141.304 105.548 141.844 105.626 142.429C105.71 143.075 105.836 143.723 106.005 144.372C106.095 144.721 105.988 144.799 105.685 144.607C104.659 143.959 103.65 143.219 102.658 142.388C102.53 142.281 102.402 142.232 102.275 142.239C102.262 142.24 102.249 142.244 102.239 142.252C102.228 142.259 102.219 142.269 102.213 142.281C102.208 142.293 102.205 142.307 102.205 142.321C102.206 142.335 102.209 142.349 102.216 142.361C103.103 144.026 104.379 145.314 106.043 146.223C106.41 146.423 106.539 146.725 106.429 147.129C106.209 147.926 106.27 148.833 106.612 149.851C106.745 150.25 106.603 150.427 106.185 150.38C105.661 150.322 105.161 149.988 104.686 149.379C104.487 149.125 104.294 148.868 104.106 148.608C104.026 148.499 103.944 148.433 103.858 148.41C103.717 148.372 103.631 148.433 103.601 148.59C103.586 148.67 103.6 148.759 103.644 148.859C104.266 150.267 105.255 151.329 106.612 152.044C106.701 152.091 106.775 152.162 106.827 152.248C106.878 152.335 106.904 152.435 106.902 152.536C106.893 152.964 106.866 153.376 106.819 153.771C106.756 154.311 106.745 154.718 106.785 154.993C106.978 156.314 107.663 157.332 108.84 158.046C108.936 158.104 109.016 158.186 109.071 158.284C109.126 158.382 109.155 158.493 109.156 158.605C109.156 159.02 109.15 159.415 109.14 159.791C109.122 160.394 109.442 160.604 110.1 160.422C110.469 160.32 110.721 160.09 110.858 159.732C110.989 159.388 111.308 159.158 111.814 159.042C113.483 158.658 114.867 157.889 115.966 156.736C116.16 156.532 116.117 156.439 115.836 156.459C115.362 156.492 114.924 156.567 114.521 156.684C112.956 157.138 111.557 156.949 110.326 156.116C109.744 155.722 109.378 155.292 109.228 154.826C109.085 154.382 109.131 153.94 109.365 153.503C109.529 153.199 109.815 152.891 110.222 152.579C111.464 151.629 112.894 151.122 114.512 151.059C114.595 151.055 114.667 151.028 114.715 150.985C114.861 150.845 114.864 150.685 114.724 150.504C114.425 150.123 113.997 149.936 113.441 149.943C112.895 149.951 112.35 149.981 111.805 150.035C111.267 150.088 110.754 150.036 110.265 149.88C109.736 149.71 109.334 149.42 109.061 149.01C108.665 148.416 108.598 147.74 108.86 146.983C109.207 145.971 109.837 145.254 110.75 144.83C111.207 144.616 111.853 144.499 112.687 144.478C113.496 144.459 114.161 144.471 114.681 144.516C114.949 144.539 115.042 144.48 114.961 144.341C114.928 144.283 114.87 144.238 114.789 144.205C112.961 143.443 111.054 143.091 109.07 143.148C108.596 143.161 108.354 143.167 108.344 143.166C108.1 143.101 107.926 142.885 107.82 142.517C107.736 142.22 107.762 141.934 107.897 141.658C108.047 141.352 108.302 141.077 108.662 140.832C108.794 140.744 109.114 140.559 109.622 140.278C111.112 139.457 112.707 138.951 114.406 138.758C115.013 138.689 115.346 138.653 115.405 138.65C115.754 138.634 116.093 138.673 116.422 138.767C116.708 138.848 116.879 139.035 116.936 139.326C117.261 141.002 117.532 142.685 117.75 144.374C117.777 144.589 117.835 144.746 117.922 144.843C118.072 145.013 118.237 145.011 118.416 144.837C118.507 144.749 118.565 144.622 118.589 144.453C118.756 143.326 118.893 142.196 119 141.062C119.084 140.183 119.205 139.61 119.363 139.344C119.713 138.752 120.333 138.503 121.221 138.598C122.726 138.761 124.173 139.126 125.56 139.694C126.341 140.014 126.87 140.265 127.148 140.447C127.652 140.778 128.06 141.217 128.373 141.766C128.63 142.217 128.641 142.592 128.407 142.893C128.243 143.105 127.956 143.246 127.547 143.315C127.116 143.387 126.683 143.396 126.248 143.342C125.448 143.243 125.024 143.193 124.976 143.193C123.975 143.184 122.992 143.33 122.026 143.633C121.643 143.753 121.314 143.953 121.041 144.235C120.963 144.316 120.913 144.401 120.892 144.492C120.835 144.732 120.949 144.801 121.235 144.699C123.525 143.892 125.42 144.391 126.92 146.196C127.48 146.871 127.704 147.626 127.592 148.462C127.523 148.983 127.3 149.379 126.923 149.65C126.666 149.835 126.262 149.927 125.712 149.927C125.286 149.927 124.861 149.928 124.435 149.93C123.292 149.933 122.211 150.187 121.19 150.694C121.014 150.781 120.977 150.865 121.079 150.946C121.121 150.979 121.184 150.997 121.266 151C123.206 151.071 124.887 151.667 126.309 152.788C127.27 153.544 127.512 154.323 127.035 155.124C126.73 155.635 126.205 156.072 125.461 156.434C124.054 157.121 122.573 157.122 121.018 156.438C120.823 156.353 120.62 156.294 120.409 156.263C120.122 156.219 119.979 156.282 119.979 156.452C119.979 156.483 119.988 156.516 120.005 156.548C120.023 156.58 120.049 156.61 120.08 156.637C121.37 157.74 122.878 158.528 124.604 159.002C124.982 159.106 125.301 159.335 125.563 159.689C125.908 160.157 126.205 160.421 126.451 160.481C126.922 160.595 127.165 160.403 127.18 159.904C127.192 159.528 127.201 159.152 127.209 158.776C127.221 158.16 127.55 157.713 128.195 157.435C128.524 157.294 128.774 157.065 128.946 156.75C129.606 155.535 129.772 154.169 129.444 152.651C129.424 152.557 129.434 152.459 129.473 152.371C129.511 152.284 129.576 152.21 129.658 152.162C131.04 151.335 132.077 150.208 132.768 148.782C132.901 148.507 132.856 148.475 132.635 148.685C131.941 149.348 131.119 149.908 130.17 150.365C130.142 150.378 130.111 150.385 130.079 150.383C130.048 150.381 130.018 150.372 129.991 150.356C129.964 150.339 129.942 150.316 129.927 150.289C129.911 150.262 129.902 150.231 129.902 150.2C129.885 149.047 129.984 147.811 130.197 146.491C130.212 146.399 130.25 146.311 130.307 146.236C130.365 146.161 130.44 146.102 130.527 146.063C132.078 145.375 133.206 144.227 133.909 142.62C133.943 142.547 133.958 142.483 133.957 142.429C133.954 142.298 133.884 142.275 133.747 142.361C133.703 142.388 133.656 142.432 133.605 142.492C132.831 143.401 131.847 144.004 130.655 144.3C130.443 144.353 130.38 144.279 130.466 144.079C131.165 142.445 130.92 140.923 129.733 139.514C129.72 139.499 129.712 139.481 129.708 139.462C129.704 139.443 129.705 139.423 129.711 139.405C129.717 139.387 129.728 139.37 129.741 139.357C129.755 139.343 129.773 139.334 129.791 139.329C131.898 138.789 133.841 138.077 135.621 137.191C137.102 136.455 138.546 135.482 139.954 134.272C140.621 133.698 141.029 133.743 141.178 134.407C141.229 134.631 141.239 134.945 141.208 135.349C140.922 139.133 139.3 142.196 136.341 144.541C136.035 144.782 135.904 144.71 135.946 144.325C136.101 142.898 136.191 141.484 136.217 140.082C136.218 139.978 136.197 139.898 136.153 139.84C136.069 139.732 135.981 139.737 135.887 139.856C135.847 139.906 135.82 139.975 135.808 140.064C135.383 142.892 134.763 145.674 133.95 148.408C133.661 149.379 133.328 150.302 132.951 151.176C132.563 152.08 132.147 152.97 131.702 153.848C130.923 155.386 130.399 156.653 130.13 157.649C130.053 157.933 130.163 158.125 130.459 158.224C130.488 158.234 130.521 158.232 130.55 158.219C130.58 158.206 130.604 158.182 130.619 158.152C131.002 157.391 131.393 156.634 131.792 155.879C132.028 155.428 132.329 155.029 132.696 154.682C132.706 154.673 132.717 154.666 132.73 154.662C132.743 154.658 132.756 154.657 132.769 154.659C132.783 154.661 132.795 154.666 132.805 154.674C132.816 154.682 132.824 154.693 132.829 154.705C132.989 155.041 133.122 155.534 133.231 156.184C133.384 157.1 133.513 158.021 133.619 158.945C133.809 160.627 134.576 161.053 135.917 160.224C136.196 160.051 136.311 159.803 136.259 159.48C135.996 157.816 135.814 156.229 135.711 154.718C135.678 154.23 135.742 153.653 135.903 152.987C136.583 150.181 136.989 148.447 137.121 147.785C137.193 147.426 137.36 147.145 137.622 146.942C137.829 146.783 137.94 146.697 137.953 146.685C139.433 145.325 140.335 144.428 140.66 143.996C142.62 141.379 143.794 138.438 144.182 135.174C144.221 134.852 144.443 134.546 144.848 134.256C147.673 132.242 149.899 129.704 151.528 126.642C152.481 124.852 153.049 123.215 153.233 121.732C153.345 120.815 153.463 119.899 153.584 118.984C153.747 117.756 154.01 116.767 154.374 116.019C155.819 113.043 156.646 109.899 156.855 106.588C156.967 104.785 157.002 102.853 156.958 100.794C156.955 100.6 156.993 100.414 157.071 100.237C161.081 91.1302 163.452 81.616 164.184 71.6945C164.27 70.5312 164.571 69.4603 165.086 68.4818C165.503 67.6927 165.829 66.9149 166.065 66.1484C166.131 65.9334 166.148 65.7192 166.115 65.5058C166.089 65.3375 166.052 65.1225 166.002 64.861C165.895 64.2793 166.034 63.8344 166.419 63.5263C166.694 63.3069 167.07 63.2145 167.547 63.249C167.95 63.2776 168.347 63.355 168.738 63.4812C171.312 64.3064 173.893 65.1098 176.48 65.8913C176.491 65.8944 177.263 66.1409 178.799 66.6308C179.684 66.9134 180.579 67.1614 181.485 67.3748C181.829 67.456 182.099 67.4598 182.294 67.3861C182.592 67.2749 182.79 67.0532 182.89 66.721C183.075 66.0988 182.884 65.708 182.317 65.5487C181.993 65.457 181.824 65.4081 181.807 65.4021C177.554 63.8329 173.188 62.5223 168.711 61.4702C168.682 61.4635 168.655 61.4507 168.632 61.4328C168.609 61.4149 168.59 61.3922 168.576 61.3662C168.562 61.3402 168.554 61.3116 168.552 61.2821C168.55 61.2526 168.554 61.2229 168.564 61.1951C169.193 59.4727 169.535 57.7502 169.59 56.0277C169.598 55.8338 169.615 55.6835 169.642 55.5768C169.755 55.1289 169.949 55.1146 170.224 55.534C170.386 55.782 170.478 56.054 170.499 56.3501C170.562 57.2835 170.519 58.2454 170.371 59.2359C170.321 59.5621 170.454 59.774 170.77 59.8717C174.345 60.9719 177.958 62.0008 181.609 62.9582C181.684 62.978 181.765 62.97 181.835 62.9356C181.905 62.9012 181.96 62.8428 181.99 62.7711C184.541 56.6387 187.541 50.7333 190.988 45.0548C192.005 43.3805 193.296 42.0029 194.863 40.9223C194.951 40.8612 195.052 40.8227 195.158 40.8101C195.263 40.7975 195.37 40.8112 195.467 40.8501L203.043 43.8644C203.414 44.0132 203.692 44.271 203.875 44.6377C204.285 45.4524 204.488 46.3129 204.484 47.2192C204.484 47.2332 204.481 47.2471 204.475 47.26C204.47 47.2728 204.461 47.2843 204.45 47.2937C204.44 47.303 204.427 47.3101 204.413 47.3144C204.4 47.3186 204.385 47.32 204.371 47.3184C203.296 47.1816 202.394 46.9697 201.665 46.6826C201.414 46.5849 201.145 46.4181 200.86 46.1821C200.46 45.8514 200.212 45.6583 200.118 45.6027C199.014 44.9534 198.148 45.2758 197.52 46.5699C197.405 46.8059 197.311 47.347 197.238 48.1932C197.236 48.2037 197.196 48.4141 197.116 48.8244C197.023 49.3039 197.241 49.6263 197.77 49.7916C200.98 50.7896 202.88 51.4442 203.469 51.7553C203.837 51.9507 203.986 52.3047 203.916 52.8172C203.559 55.3964 203.001 57.9313 202.242 60.4218C202.099 60.8923 201.894 61.3312 201.626 61.7385C201.619 61.75 201.609 61.7598 201.598 61.7671C201.586 61.7745 201.573 61.7793 201.559 61.7812C201.545 61.7831 201.531 61.7821 201.517 61.7782C201.504 61.7744 201.491 61.7677 201.48 61.7588C200.024 60.5503 198.32 60.0506 196.367 60.2595C196.293 60.2682 196.218 60.2507 196.155 60.2099C195.775 59.9694 195.382 59.9025 194.978 60.0092C194.944 60.0185 194.912 60.0346 194.884 60.0567C194.856 60.0788 194.833 60.1063 194.816 60.1377C194.607 60.5255 194.338 61.2026 194.01 62.1691C193.099 64.8565 192.178 67.6221 191.245 70.4658C191.146 70.7679 191.234 70.9994 191.509 71.1602C191.753 71.3015 192.089 71.4405 192.517 71.5773C193.827 71.9937 195.077 72.5423 196.268 73.2231C196.575 73.399 196.82 73.511 197.003 73.5591C197.322 73.6432 197.599 73.6515 197.833 73.5839C198.167 73.4862 198.273 73.5996 198.151 73.9243C195.553 80.8322 192.267 87.2404 188.293 93.1488C187.558 94.243 186.569 95.3207 185.328 96.3818C184.958 96.6975 184.575 96.7831 184.18 96.6388C183.962 96.5577 183.85 96.5163 183.846 96.5148C182.18 96.0279 180.249 95.3259 178.054 94.4091C177.48 94.1686 177.001 93.8575 176.618 93.4757C176.249 93.1075 175.982 92.6235 175.817 92.0238C175.634 91.3564 175.568 90.6673 175.621 89.9564C175.824 87.1818 176.184 84.4275 176.701 81.6935C177.567 77.1092 178.749 72.5994 180.246 68.1639C180.277 68.0728 180.274 67.9737 180.237 67.885C180.2 67.7963 180.132 67.7239 180.046 67.6815C179.404 67.3643 178.701 67.0915 177.937 66.8631C174.931 65.9642 171.851 65.118 168.695 64.3244C168.322 64.2312 168.034 64.3477 167.831 64.6739C167.66 64.955 167.596 65.2646 167.639 65.6028C167.709 66.1363 167.743 66.4061 167.743 66.4121C167.71 66.9547 167.497 67.3583 167.103 67.6228C166.285 68.1699 165.857 68.8508 165.819 69.6655C165.785 70.3989 165.734 71.1302 165.668 71.8591C165.205 76.8747 164.429 81.837 163.341 86.7459C162.962 88.4503 162.581 89.903 162.197 91.1039C161.292 93.9401 160.123 96.6689 158.688 99.2902C158.518 99.6013 158.39 99.926 158.305 100.264C158.236 100.538 158.218 100.883 158.253 101.299C158.381 102.811 158.445 103.967 158.447 104.766C158.46 109.152 157.464 113.274 155.456 117.13C155.3 117.43 155.216 117.745 155.204 118.077C155.142 119.765 154.997 121.157 154.769 122.253C154.233 124.817 153.195 127.086 151.654 129.059C150.463 130.583 149.032 131.98 147.36 133.25C147.351 133.256 147.162 133.383 146.794 133.629C146.075 134.11 145.701 134.79 145.671 135.667C145.653 136.16 145.643 136.414 145.641 136.429C145.287 139.765 143.858 142.556 141.356 144.803C140.681 145.41 139.96 146.001 139.191 146.575C138.885 146.803 138.715 147.108 138.682 147.49C138.494 149.579 137.944 151.575 137.033 153.478C136.877 153.804 136.831 154.142 136.895 154.49L138.023 160.639C138.03 160.68 138.05 160.718 138.08 160.748C138.109 160.777 138.147 160.797 138.188 160.805C151.119 163.329 164.054 165.838 176.99 168.331C177.139 168.36 177.136 168.374 176.983 168.374C137.465 168.401 97.946 168.415 58.4275 168.415C58.3899 168.415 58.3426 168.418 58.2855 168.424C58.078 168.445 58.0336 168.403 58.1524 168.297C58.181 168.273 58.217 168.257 58.2606 168.25C71.1653 166.004 84.0708 163.767 96.977 161.538C97.4942 161.45 97.8761 161.301 98.1227 161.092C98.1738 161.049 98.212 160.983 98.2309 160.905C98.7226 158.84 99.0564 156.871 99.2323 155C99.2759 154.53 99.2631 154.037 99.1939 153.523C99.1473 153.181 99.0316 152.706 98.8466 152.098C98.379 150.564 97.9257 149.025 97.4867 147.483C97.4837 147.474 97.4536 147.335 97.3965 147.066C97.3093 146.647 97.0612 146.281 96.6522 145.968C94.7789 144.528 93.3265 142.746 92.2951 140.621C91.405 138.787 90.8043 136.985 90.4931 135.216C90.4375 134.898 90.3766 134.628 90.3104 134.407C90.2352 134.15 90.0856 133.929 89.8616 133.744C89.6165 133.543 89.3151 133.324 88.9572 133.088C86.0705 131.19 83.9693 128.676 82.6537 125.547C82.1786 124.415 81.8163 123.134 81.5667 121.703C81.3276 120.329 81.2028 118.995 81.1923 117.701C81.1893 117.315 81.0931 116.954 80.9036 116.619C78.2544 111.955 77.3253 107.038 78.1161 101.867C78.1161 101.863 78.1432 101.739 78.1973 101.495C78.2845 101.097 78.2251 100.674 78.0191 100.228C73.5206 90.5035 71.0443 80.485 70.5903 70.1727C70.5587 69.4513 70.3955 68.9019 70.1009 68.5247C69.2243 67.3989 68.6612 66.0882 68.4117 64.5927C68.341 64.1659 68.0974 64.0103 67.6809 64.126C64.8634 64.9106 61.9473 65.7283 58.9327 66.579C57.7855 66.9036 56.8804 67.208 56.2174 67.4921C56.1859 67.5054 56.1591 67.5277 56.1402 67.5561C56.1214 67.5846 56.1113 67.618 56.1114 67.6521ZM186.595 66.5767C186.183 69.7526 184.871 72.4874 182.66 74.781C182.542 74.9028 182.456 75.0005 182.4 75.0741C182.104 75.4769 182.193 75.6152 182.666 75.4889C182.79 75.4559 182.904 75.3905 183.009 75.2928C187.408 71.2617 189.243 66.225 188.512 60.1828C188.509 60.1663 188.501 60.025 188.489 59.759C188.479 59.5621 188.429 59.3983 188.341 59.2675C188.166 59.009 188.041 59.0308 187.964 59.3329C187.905 59.5704 187.894 59.8056 187.93 60.0385C187.974 60.3181 187.996 60.4624 187.998 60.4714C188.126 62.0947 187.83 63.6368 187.111 65.0977C187.105 65.1103 187.097 65.1215 187.086 65.1304C187.075 65.1394 187.063 65.1459 187.049 65.1495C187.036 65.1532 187.022 65.1539 187.008 65.1515C186.994 65.1492 186.981 65.1439 186.969 65.1361C186.625 64.9091 186.271 64.7002 185.907 64.5093C185.603 64.35 185.344 64.3026 185.129 64.3673C184.83 64.456 184.628 64.6799 184.525 65.0391C184.389 65.5126 184.38 65.9364 184.495 66.3107C184.59 66.6218 184.817 66.7473 185.176 66.6872L186.498 66.473C186.511 66.4705 186.525 66.4714 186.537 66.4757C186.55 66.48 186.562 66.4876 186.571 66.4977C186.581 66.5079 186.588 66.5204 186.592 66.5341C186.596 66.5479 186.597 66.5625 186.595 66.5767ZM51.8737 75.3604C52.218 75.655 52.345 75.5806 52.2548 75.1372C52.2293 75.005 52.1436 74.8321 51.9977 74.6187C51.8263 74.3662 51.7211 74.2069 51.682 74.1407C50.2296 71.7148 49.0381 69.3919 48.1074 67.1719C47.2835 65.2045 46.7933 63.0619 46.6369 60.7442C46.6294 60.624 46.6106 60.5248 46.5806 60.4466C46.4663 60.152 46.3317 60.1625 46.1769 60.4782C46.0972 60.642 46.037 60.9885 45.9964 61.5175C45.9709 61.8527 45.9769 62.2022 46.0145 62.5659C46.1288 63.6932 46.3287 64.9933 46.6144 66.4663C47.294 69.9758 49.0471 72.9406 51.8737 75.3604ZM183.816 63.8172C183.855 63.8164 183.891 63.8044 183.923 63.7827C183.954 63.7611 183.978 63.7307 183.992 63.6954C184.197 63.1739 184.568 62.859 185.104 62.7508C185.169 62.739 185.243 62.7468 185.319 62.7733C185.592 62.8695 185.874 62.9131 186.164 62.9041C186.33 62.8996 186.462 62.8492 186.561 62.753C186.712 62.6072 186.746 62.4517 186.665 62.2863C186.599 62.1526 186.46 62.0398 186.25 61.9481C185.624 61.6746 185.031 61.6911 184.471 61.9977C184.164 62.1646 183.938 62.384 183.794 62.6561C183.638 62.9492 183.574 63.2746 183.605 63.6323C183.614 63.7585 183.684 63.8202 183.816 63.8172ZM48.1683 62.8748C48.4479 63.0747 48.7592 63.116 49.102 62.9988C50.0958 62.6546 50.7934 62.9229 51.1949 63.8036C51.2881 64.008 51.3971 64.1305 51.5219 64.1711C51.5343 64.1747 51.5474 64.1748 51.56 64.1713C51.5726 64.1678 51.5843 64.1609 51.5941 64.1511C51.6039 64.1413 51.6114 64.129 51.6161 64.1152C51.6209 64.1014 51.6226 64.0865 51.6211 64.0719C51.4211 62.3179 50.4333 61.6656 48.6577 62.115C48.3119 62.2022 48.1209 62.3938 48.0848 62.6899C48.0807 62.7248 48.0863 62.7603 48.1009 62.7929C48.1156 62.8254 48.1389 62.8537 48.1683 62.8748ZM52.2661 68.4976L50.825 66.358C50.7823 66.2918 50.7588 66.2221 50.7573 66.1574C50.7513 65.4615 50.6295 64.9632 50.392 64.6626C50.0266 64.2012 49.6222 64.1072 49.1786 64.3808C48.6554 64.704 48.3495 65.1736 48.2607 65.7899C48.2156 66.104 48.3314 66.34 48.6081 66.4978C49.0035 66.7248 49.4786 66.8029 50.0334 66.7323C50.0795 66.7264 50.126 66.7346 50.1664 66.7556C50.2068 66.7766 50.2392 66.8095 50.2589 66.8495L51.7632 70.0329C51.8805 70.2794 51.8339 70.4981 51.6234 70.689C51.4114 70.8829 51.2685 71.1813 51.1949 71.5841C51.1877 71.6226 51.1885 71.6621 51.197 71.7002C51.2055 71.7384 51.2217 71.7743 51.2445 71.806C51.2672 71.8376 51.2962 71.8642 51.3295 71.8842C51.3629 71.9042 51.3999 71.9172 51.4384 71.9223C53.1118 72.1537 53.9463 71.5375 53.9418 70.0735C53.9403 69.5941 53.8501 69.2258 53.6712 68.9688C53.411 68.593 52.9983 68.46 52.433 68.5697C52.4023 68.5757 52.3702 68.5721 52.3405 68.5593C52.3109 68.5464 52.285 68.525 52.2661 68.4976ZM182.608 71.8298C182.985 71.9606 183.387 72.0493 183.812 72.0959C184.122 72.1304 184.18 72.026 183.986 71.7825C183.858 71.6217 183.697 71.4706 183.503 71.3293C182.751 70.7792 182.682 70.1787 183.296 69.5279C183.312 69.5104 183.323 69.489 183.328 69.4655C183.334 69.4421 183.333 69.4174 183.326 69.3938C183.318 69.3702 183.305 69.3484 183.287 69.3305C183.269 69.3126 183.247 69.299 183.223 69.2912L182.093 68.9237C181.814 68.832 181.621 68.9034 181.514 69.1379C181.17 69.8924 181.207 70.562 181.627 71.1467C181.846 71.4518 182.173 71.6795 182.608 71.8298ZM117.279 153.494C116.978 155.703 116.826 157.935 116.823 160.188C116.824 160.266 116.852 160.341 116.904 160.399C116.955 160.457 117.026 160.493 117.103 160.501C117.993 160.593 118.387 160.317 118.285 159.674C118.24 159.394 118.216 159.245 118.215 159.225C118.092 157.775 117.941 156.328 117.762 154.885C117.759 154.87 117.745 154.684 117.721 154.326C117.7 154.019 117.626 153.731 117.498 153.46C117.387 153.227 117.314 153.238 117.279 153.494Z" fill="white"/>
<path d="M36.3957 45.5373C34.9599 45.4877 33.7307 45.9657 32.7084 46.9712C32.6693 47.0103 32.6061 47.0418 32.5189 47.0659L30.7733 47.5551C30.7347 47.5662 30.6938 47.568 30.6544 47.5602C30.615 47.5524 30.5786 47.5354 30.5488 47.5109C30.519 47.4863 30.4968 47.455 30.4843 47.42C30.4719 47.3851 30.4697 47.3477 30.4779 47.3116L31.1838 44.2477C31.2454 43.9802 31.4078 43.7983 31.6709 43.7021L37.8932 41.425C37.9188 41.4159 37.9463 41.4138 37.973 41.4188C37.9997 41.4238 38.0246 41.4357 38.0453 41.4535C38.0661 41.4713 38.0819 41.4942 38.0912 41.5201C38.1005 41.5459 38.103 41.5738 38.0985 41.6009C37.8985 42.8303 37.7158 44.0688 37.5504 45.3164C37.4993 45.7071 37.3001 45.8334 36.9528 45.6951C36.7047 45.5944 36.519 45.5418 36.3957 45.5373Z" fill="white"/>
<path d="M205.923 48.7343C205.927 48.7077 205.936 48.6823 205.95 48.6594C205.964 48.6365 205.983 48.6167 206.005 48.6012C206.027 48.5856 206.052 48.5746 206.079 48.5688C206.105 48.563 206.133 48.5625 206.159 48.5674C206.901 48.7117 207.633 48.9349 208.356 49.237C209.239 49.6068 209.876 50.0103 210.269 50.4477C210.939 51.1917 211.134 52.1108 210.853 53.205C210.84 53.2534 210.817 53.2986 210.786 53.3376C210.755 53.3767 210.716 53.4087 210.672 53.4317C210.628 53.4547 210.579 53.468 210.529 53.4709C210.48 53.4738 210.43 53.4662 210.384 53.4485C208.728 52.8218 207.068 52.6121 205.404 52.8195C205.388 52.8214 205.371 52.8196 205.356 52.8141C205.34 52.8086 205.326 52.7996 205.315 52.7878C205.304 52.776 205.295 52.7617 205.29 52.7461C205.285 52.7305 205.284 52.7139 205.287 52.6978L205.923 48.7343Z" fill="white"/>
<path d="M27.2686 52.5534C26.6477 52.5985 26.0508 52.7593 25.4779 53.0359C25.0299 53.2523 24.6322 53.3914 24.2849 53.453C24.2334 53.4618 24.1806 53.4585 24.1307 53.4434C24.0809 53.4283 24.0355 53.4018 23.9986 53.3662C23.9616 53.3305 23.9341 53.2868 23.9184 53.2388C23.9027 53.1907 23.8992 53.1396 23.9083 53.09L24.348 50.7723C24.4037 50.4777 24.5863 50.2718 24.8961 50.1546L28.8112 48.6621C28.8362 48.6527 28.863 48.6496 28.8895 48.6529C28.916 48.6562 28.9413 48.6659 28.9634 48.6811C28.9855 48.6963 29.0037 48.7167 29.0164 48.7404C29.0292 48.7642 29.0362 48.7907 29.0368 48.8176C29.0458 49.4835 29.1225 50.1283 29.2668 50.752C29.2683 50.7596 29.3683 51.0647 29.5668 51.6674C29.6765 51.998 29.7464 52.3528 29.7765 52.7315C29.7793 52.7678 29.7734 52.8042 29.7591 52.8376C29.7448 52.871 29.7227 52.9005 29.6945 52.9235C29.6664 52.9466 29.6331 52.9625 29.5975 52.9699C29.5619 52.9772 29.525 52.9759 29.4901 52.966C29.1337 52.8623 28.7676 52.7646 28.3917 52.6729C27.9663 52.5692 27.5919 52.5294 27.2686 52.5534Z" fill="white"/>
<path d="M40.4191 59.6801C40.3635 59.7673 40.268 59.8266 40.1327 59.8582C37.8127 60.3858 35.5552 61.114 33.3601 62.0429C33.3366 62.0529 33.3114 62.058 33.2859 62.0578C33.2603 62.0577 33.2352 62.0522 33.2119 62.0418C33.1886 62.0315 33.1677 62.0164 33.1505 61.9976C33.1333 61.9787 33.1202 61.9565 33.112 61.9324C31.9889 58.6828 31.3972 55.3371 31.3371 51.8951C31.3363 51.8628 31.3457 51.831 31.3638 51.804C31.382 51.777 31.4081 51.7561 31.4386 51.7441L37.9428 49.1717C37.97 49.1611 37.9991 49.1565 38.0282 49.1582C38.0573 49.1598 38.0856 49.1676 38.1113 49.1811C38.137 49.1946 38.1594 49.2134 38.177 49.2363C38.1947 49.2592 38.2071 49.2856 38.2134 49.3137L40.4845 59.3036C40.5133 59.4321 40.4898 59.5675 40.4191 59.6801Z" fill="white"/>
<path d="M73.6573 58.2597C73.6801 58.2899 73.7099 58.3141 73.7441 58.3302C73.7784 58.3462 73.816 58.3537 73.8538 58.3519C73.8916 58.3502 73.9284 58.3392 73.961 58.32C73.9935 58.3007 74.0209 58.2739 74.0407 58.2416C74.4046 57.6479 74.6241 57.0047 74.6993 56.3118C74.7203 56.1224 74.7654 55.9368 74.8346 55.7549C74.8932 55.6001 74.9654 55.5933 75.0511 55.7346C75.2511 56.0698 75.3405 56.4485 75.3195 56.8709C75.2849 57.5548 75.3105 57.9824 75.3962 58.1537C75.5495 58.4543 75.6811 58.4446 75.7908 58.1244C75.9171 57.7607 75.9885 57.5119 76.0051 57.3782C76.1464 56.2749 76.5448 55.34 77.2004 54.5735C77.5086 54.2158 77.8912 53.9866 78.3483 53.8859C78.6806 53.8122 79.1098 53.7919 79.6361 53.825C80.5517 53.8821 81.3486 54.206 82.0267 54.7967C82.6055 55.3032 82.9544 55.585 83.0731 55.6422C83.5918 55.8902 84.1557 55.951 84.7646 55.8248C85.1766 55.7391 85.3901 55.6955 85.4051 55.694C107.117 52.3423 128.821 52.3896 150.517 55.8361C150.892 55.8962 151.198 55.8639 151.437 55.7391C151.69 55.6083 151.95 55.4175 152.218 55.1665C153.019 54.4134 153.888 53.9482 154.825 53.7709C155.301 53.6807 155.78 53.7183 156.259 53.8836C156.665 54.0234 157.052 54.2804 157.418 54.6547C157.943 55.1882 158.333 55.7812 158.589 56.4335C158.808 56.9956 158.97 57.3849 159.074 57.6014C159.089 57.6338 159.113 57.6611 159.142 57.6795C159.172 57.698 159.205 57.7069 159.238 57.7051C159.398 57.693 159.516 57.6201 159.592 57.4864C159.645 57.3917 159.659 57.2684 159.635 57.1166C159.572 56.7364 159.445 56.3711 159.254 56.0209C159.24 55.9949 159.233 55.9661 159.232 55.9366C159.231 55.9071 159.237 55.8779 159.249 55.8512C159.262 55.8245 159.28 55.801 159.304 55.7827C159.327 55.7645 159.354 55.7518 159.383 55.7459C159.886 55.6437 160.184 55.7384 160.276 56.0299C160.491 56.7183 160.741 57.3939 161.027 58.0568C161.131 58.2973 161.226 58.2935 161.313 58.0455C161.444 57.6682 161.612 57.2895 161.816 56.9092C162.015 56.541 162.215 56.4786 162.416 56.7221C162.49 56.8123 162.559 56.9581 162.624 57.1595C162.759 57.5833 162.89 58.0094 163.016 58.4378C163.108 58.7489 163.193 58.7527 163.273 58.4491L163.677 56.925C163.746 56.6635 163.884 56.4914 164.092 56.4087C164.523 56.2374 164.886 56.2817 165.179 56.5417C165.415 56.7506 165.526 57.0437 165.513 57.421C165.501 57.7351 165.438 58.1011 165.325 58.519C165.013 59.6823 164.468 60.6405 163.69 61.3935C162.922 62.139 161.959 62.4915 160.801 62.4509C159.549 62.4058 158.308 62.0075 157.078 61.256C157.047 61.238 157.022 61.213 157.003 61.1831C156.985 61.1532 156.974 61.1194 156.972 61.0846C156.954 60.8051 156.973 60.5285 157.028 60.255C157.115 59.8311 157.161 59.5613 157.164 59.4456C157.198 58.5032 157.02 57.5968 156.629 56.7266C156.413 56.2426 156.116 55.8729 155.74 55.6174C155.363 55.3588 154.998 55.3633 154.644 55.6309C154.586 55.673 154.545 55.7372 154.529 55.8113C154.375 56.4861 154.525 57.1444 154.98 57.7862C155.105 57.9636 155.164 58.1996 155.156 58.4942C155.156 58.5086 155.152 58.5228 155.146 58.5358C155.139 58.5489 155.13 58.5606 155.119 58.5703C155.107 58.58 155.094 58.5874 155.08 58.5921C155.065 58.5969 155.05 58.5988 155.035 58.5979C154.409 58.5633 153.893 58.5092 153.485 58.4355C143.86 56.692 134.157 55.6602 124.379 55.3401C109.856 54.8651 95.4441 55.9007 81.1426 58.4468C80.4916 58.5625 79.927 58.6167 79.4489 58.6091C79.1392 58.6031 79.0662 58.4694 79.2301 58.2078C79.5714 57.6652 79.8669 57.1985 80.1165 56.8078C80.3375 56.4621 80.3563 56.163 80.1728 55.9105C80.0195 55.7 79.794 55.5783 79.4963 55.5452C79.0888 55.5001 78.7422 55.6707 78.4566 56.057C77.9409 56.7544 77.6184 57.5202 77.4891 58.3544C77.4304 58.7391 77.4515 59.2028 77.5522 59.7454C77.6379 60.1933 77.7289 60.6533 77.8251 61.1252C77.834 61.1697 77.834 61.2154 77.825 61.2596C77.816 61.3039 77.7982 61.3456 77.7728 61.3822C77.7474 61.4188 77.7149 61.4495 77.6773 61.4724C77.6398 61.4953 77.5979 61.5099 77.5545 61.5153L72.2252 62.16C72.1554 62.1688 72.0818 62.1504 72.0178 62.1082C71.5487 61.8016 71.154 61.4273 70.8337 60.9854C70.5947 60.6548 70.3135 60.173 69.9903 59.5403C69.6911 58.9541 69.5151 58.4213 69.4625 57.9418C69.3768 57.1737 69.6835 56.6522 70.3827 56.3771C70.9014 56.1712 71.1735 56.3305 71.1991 56.8551L71.2713 58.3454C71.2878 58.6655 71.384 58.7061 71.5599 58.4671L72.6628 56.9678C72.8657 56.6928 73.0063 56.7116 73.0845 57.0242C73.2048 57.5007 73.3957 57.9125 73.6573 58.2597Z" fill="white"/>
<path d="M21.7093 57.9959C20.6494 57.9268 19.6608 58.0057 18.7436 58.2326C18.7086 58.2414 18.6721 58.2421 18.6367 58.2348C18.6013 58.2274 18.568 58.2121 18.5392 58.19C18.5104 58.168 18.4869 58.1397 18.4704 58.1072C18.4538 58.0748 18.4447 58.0391 18.4437 58.0027C18.4076 56.5853 18.8797 55.5362 19.86 54.8553C20.5366 54.3864 21.3786 54.173 22.3859 54.215C22.4154 54.2168 22.4432 54.2301 22.4641 54.2526C22.4849 54.2751 22.4972 54.3051 22.4987 54.3368L22.6453 57.9824C22.6459 57.9977 22.6437 58.013 22.6388 58.0273C22.6339 58.0417 22.6264 58.0548 22.6167 58.0659C22.607 58.0771 22.5954 58.086 22.5825 58.0922C22.5696 58.0983 22.5557 58.1016 22.5415 58.1019C22.3987 58.1049 22.2581 58.0929 22.1198 58.0658C21.9213 58.0252 21.7845 58.0019 21.7093 57.9959Z" fill="white"/>
<path d="M212.481 57.8133C212.213 57.7847 212.055 57.6404 212.005 57.3804C211.796 56.2877 211.773 55.4144 211.935 54.7606C212.013 54.448 212.213 54.3007 212.535 54.3187C214.975 54.448 216.245 55.6978 216.344 58.068C216.345 58.0857 216.342 58.1033 216.335 58.1197C216.329 58.136 216.319 58.1508 216.306 58.163C216.293 58.1751 216.278 58.1844 216.261 58.1902C216.244 58.196 216.227 58.1982 216.209 58.1966L212.481 57.8133Z" fill="white"/>
<path d="M29.8395 54.7696C30.0861 54.98 30.247 55.2446 30.3222 55.5632C31.1837 59.2652 31.728 61.8474 31.955 63.3098C32.0151 63.7036 31.8535 64.0997 31.4701 64.498C31.4221 64.5489 31.3535 64.5824 31.2762 64.5927C29.7621 64.7941 28.2872 65.2848 26.8513 66.0649C26.8263 66.0783 26.7989 66.0865 26.7707 66.0892C26.7426 66.0919 26.7142 66.089 26.6872 66.0806C26.6603 66.0722 26.6354 66.0585 26.614 66.0403C26.5926 66.0221 26.5751 65.9998 26.5626 65.9747C25.4846 63.8179 24.8306 61.5738 24.6005 59.2426C24.5103 58.3348 24.5599 57.4593 24.7494 56.6161C24.7599 56.5688 24.7846 56.5256 24.8203 56.4919C24.856 56.4582 24.9012 56.4355 24.9501 56.4267C26.5363 56.1562 27.9624 55.5933 29.2284 54.7381C29.3202 54.6763 29.4294 54.646 29.5397 54.6517C29.6499 54.6574 29.7552 54.6988 29.8395 54.7696Z" fill="white"/>
<path d="M202.916 64.9805C202.676 64.8543 202.589 64.6859 202.655 64.4755C202.679 64.3974 202.692 64.3515 202.695 64.338C203.367 61.3094 204.068 58.2875 204.797 55.2725C204.871 54.9704 204.977 54.7787 205.115 54.6976C205.323 54.5758 205.582 54.6096 205.893 54.799C207.09 55.5265 208.482 56.0097 210.068 56.2487C210.099 56.2532 210.128 56.2684 210.15 56.2917C210.172 56.3151 210.185 56.3452 210.187 56.3772C210.357 58.5791 210.269 60.4016 209.924 61.8445C209.418 63.9547 209.038 65.3969 208.782 66.1709C208.671 66.5076 208.456 66.6046 208.137 66.4618C208.078 66.4355 208.023 66.3821 207.984 66.3107C207.802 65.9801 207.538 65.7478 207.19 65.6141C206.88 65.4953 206.717 65.4314 206.699 65.4224C205.559 64.9024 204.392 64.7686 203.198 65.0211C203.102 65.0401 203.002 65.0258 202.916 64.9805Z" fill="white"/>
<path d="M89.1443 119.139C88.134 117.857 87.0943 116.852 86.0253 116.123C84.8345 115.311 83.9963 114.307 83.5107 113.111C82.1064 109.655 81.7794 106.112 82.5296 102.48C82.5762 102.253 82.6506 102.241 82.7529 102.442L84.3722 105.619C84.3913 105.657 84.4143 105.691 84.4395 105.717C84.4648 105.743 84.4918 105.762 84.5188 105.772C84.7052 105.846 84.7796 105.759 84.742 105.513C84.5752 104.429 84.2662 103.344 83.8151 102.257C83.6212 101.788 83.101 100.794 82.2545 99.2744C77.12 90.0608 74.4956 80.125 74.3813 69.467C74.3806 69.4092 74.4007 69.353 74.4379 69.3087C74.4752 69.2644 74.5271 69.235 74.5843 69.2258C75.1511 69.1356 75.5819 69.2679 75.8765 69.6226C76.1291 69.9292 76.3359 70.4733 76.4967 71.2549C76.5178 71.3631 76.5524 71.4533 76.6005 71.5254C76.8065 71.8381 76.9185 71.7449 76.9365 71.2459C76.9666 70.4914 76.8651 69.7571 76.6321 69.0432C76.2141 67.7566 75.3571 67.1268 74.061 67.1539C73.6972 67.1614 73.4303 67.105 73.2604 66.9848C72.847 66.6932 72.6147 66.234 72.5635 65.6073C72.5275 65.1744 72.6214 64.8355 72.8454 64.5905C73.0063 64.4146 73.301 64.3169 73.7295 64.2974C74.6256 64.2553 75.5458 64.1155 76.49 63.878C76.5126 63.8725 76.5362 63.8722 76.5589 63.8772C76.5817 63.8823 76.6029 63.8925 76.621 63.9072C76.6392 63.9218 76.6537 63.9404 76.6634 63.9615C76.6731 63.9827 76.6778 64.0058 76.6772 64.0291C76.6681 64.3718 76.5614 64.752 76.3569 65.1699C76.2592 65.3698 76.2171 65.581 76.2306 65.8034C76.2472 66.086 76.3494 66.1762 76.5373 66.074C76.6125 66.0349 76.6779 65.959 76.7335 65.8462C77.4883 64.3162 78.7197 63.3084 80.4277 62.8229C80.459 62.8134 80.4858 62.7931 80.5033 62.7658C80.5207 62.7384 80.5275 62.7059 80.5224 62.6741L80.236 60.9764C80.2223 60.8934 80.2408 60.8084 80.2875 60.7394C80.3342 60.6704 80.4055 60.6228 80.4863 60.6067C81.9207 60.3196 83.3408 60.1137 84.7465 59.9889C84.9134 59.9754 85.057 59.9942 85.1773 60.0453C85.5141 60.1881 85.5186 60.3534 85.1908 60.5413C85.042 60.627 84.9367 60.7074 84.8751 60.7825C84.6195 61.0982 84.4654 61.4664 84.4128 61.8873C84.2684 63.0581 83.8753 64.3026 83.2333 65.6208C82.9461 66.2115 82.5634 66.6428 82.0853 66.9149C81.8433 67.0517 81.4944 67.1313 81.0389 67.1539C80.4826 67.1809 80.1195 67.2102 79.9496 67.2418C79.6188 67.3034 79.5263 67.4267 79.6722 67.6116C79.7293 67.6837 79.821 67.7513 79.9473 67.8145C80.5217 68.1076 81.2178 68.3488 82.0357 68.5382C82.5695 68.6614 82.819 69.0026 82.7845 69.5617C82.7724 69.7631 82.7664 69.8699 82.7664 69.8819C82.7424 72.2206 82.9498 74.6472 83.3889 77.1618C83.4716 77.6383 83.5753 78.0328 83.7001 78.3454C83.7065 78.3611 83.7158 78.3758 83.7273 78.388C83.7388 78.4003 83.752 78.4097 83.7656 78.4153C83.7792 78.421 83.7928 78.4228 83.805 78.4204C83.8173 78.418 83.8277 78.4116 83.8354 78.4018C83.858 78.3732 83.8693 78.3312 83.8693 78.2756C83.8723 77.9389 83.9038 77.606 83.964 77.2768C84.1549 76.2051 84.1444 75.1372 83.9324 74.0731C83.9177 73.9982 83.924 73.9243 83.9504 73.8611C84.185 73.299 84.4361 73.2043 84.7037 73.5771C84.7849 73.6913 84.8668 73.8724 84.9495 74.1204C85.9268 77.0408 86.7598 79.4449 87.4484 81.3327C87.6814 81.9715 87.8265 82.6073 87.8836 83.2401C87.9152 83.6113 87.8866 84.2546 87.7979 85.17C87.5905 87.2862 87.4927 89.4077 87.5048 91.5345C87.5047 91.5758 87.5107 91.6151 87.5223 91.6499C87.5339 91.6847 87.551 91.7145 87.5724 91.7374C87.6686 91.8412 87.7664 91.8404 87.8656 91.7352C87.9107 91.6871 87.949 91.6127 87.9806 91.512C88.5489 89.773 88.9857 87.9506 89.2909 86.0447C89.33 85.7982 89.4443 85.7569 89.6337 85.9207C89.9931 86.2303 90.2998 86.5685 90.5539 86.9353C90.614 87.0239 90.8501 87.4117 91.2621 88.0986C92.6002 90.3276 93.4249 92.7152 93.7361 95.2613C93.8128 95.8971 93.8451 97.3971 93.8331 99.7614C93.821 102.037 93.9052 104.31 94.0857 106.581C94.1563 107.491 94.2683 108.36 94.4217 109.19C94.4743 109.475 94.5781 109.496 94.7329 109.251C94.8788 109.019 94.975 108.77 95.0216 108.502C95.205 107.431 95.3689 106.357 95.5133 105.28C95.5975 104.651 95.7478 104.134 95.9643 103.732C96.1177 103.446 96.3372 103.379 96.6228 103.531C100.055 105.345 102.697 107.824 104.548 110.969C104.764 111.335 105.01 111.357 105.285 111.032C105.514 110.763 105.745 110.455 105.98 110.11C106.505 109.334 107.141 108.855 107.888 108.674C108.253 108.585 108.538 108.698 108.743 109.012C109.664 110.422 110.333 111.821 110.75 113.21C110.851 113.548 110.915 113.541 110.944 113.189C111.063 111.744 110.936 110.387 110.565 109.12C110.195 107.857 109.974 106.88 109.902 106.187C109.691 104.135 109.725 102.087 110.001 100.041C110.03 99.827 109.982 99.6096 109.866 99.4277C109.51 98.8671 109.173 98.2892 108.855 97.694C108.459 96.9454 108.353 96.1864 108.54 95.4169C108.579 95.2545 108.747 94.9179 109.045 94.4068C109.377 93.8342 109.489 93.2337 109.381 92.6054C109.133 91.1746 109.174 89.8737 109.505 88.7028C109.836 87.5245 110.409 86.5362 111.226 85.7381C111.938 85.0407 112.902 84.5101 114.117 84.1464C116.184 83.5286 118.327 83.4738 120.545 83.9818C121.17 84.1246 121.749 84.3313 122.281 84.6018C122.798 84.8618 123.283 85.2256 123.736 85.693C125.262 87.2667 126.078 89.2326 126.183 91.5909C126.214 92.3184 126.314 93.0999 126.483 93.9356C126.732 95.1861 126.85 95.9602 126.837 96.2578C126.793 97.1386 126.488 97.9562 125.921 98.7108C125.769 98.9152 125.64 99.1309 125.533 99.3578C125.44 99.5607 125.396 99.8035 125.4 100.086C125.423 101.571 125.429 103.056 125.418 104.541C125.408 106.125 125.295 107.516 125.08 108.714C124.83 110.106 124.502 111.483 124.094 112.844C124.066 112.94 124.072 113.042 124.111 113.134C124.149 113.225 124.218 113.301 124.306 113.347C124.573 113.487 124.763 113.407 124.877 113.108C125.412 111.701 125.965 110.301 126.535 108.908C126.7 108.505 126.938 108.342 127.25 108.419C127.385 108.452 127.588 108.58 127.858 108.804C128.603 109.418 129.364 110.007 130.143 110.572C130.529 110.851 130.849 110.807 131.102 110.439C133.067 107.585 135.544 105.289 138.535 103.551C138.797 103.399 139.003 103.33 139.155 103.342C139.42 103.363 139.597 103.547 139.687 103.894C140.086 105.427 140.41 106.975 140.659 108.538C140.699 108.783 140.781 109.021 140.907 109.251C140.918 109.27 140.933 109.286 140.952 109.298C140.971 109.31 140.992 109.316 141.014 109.317C141.037 109.318 141.059 109.313 141.079 109.303C141.099 109.293 141.116 109.278 141.129 109.26C141.271 109.049 141.347 108.824 141.354 108.583C141.359 108.405 141.361 108.312 141.361 108.306C141.61 105.335 141.644 102.581 141.462 100.045C141.187 96.2052 141.919 92.5791 143.659 89.1673C144.271 87.9678 144.963 86.8165 145.736 85.7133C145.852 85.548 145.933 85.563 145.98 85.7584C146.389 87.4448 146.766 89.1477 147.112 90.8672C147.187 91.243 147.303 91.5871 147.459 91.8998C147.582 92.1463 147.665 92.1335 147.707 91.8614C148.119 89.147 148.048 86.4453 147.495 83.7564C147.443 83.5008 147.489 83.1784 147.635 82.7892C147.802 82.3503 147.886 82.1278 147.888 82.1218C148.919 78.976 149.932 75.8474 150.925 72.7361C151.046 72.3619 151.124 72.3709 151.16 72.7632C151.205 73.2577 151.267 73.7492 151.345 74.2377C151.349 74.2587 151.397 74.633 151.487 75.3604C151.553 75.8865 151.684 76.3855 151.879 76.8574C151.946 77.0168 152.02 77.0205 152.103 76.8687C152.289 76.526 152.388 76.1623 152.4 75.7775C152.409 75.5265 152.414 75.3973 152.414 75.3897C152.569 73.2569 152.659 71.0745 152.685 68.8425C152.685 68.7676 152.713 68.6954 152.763 68.6395C152.814 68.5835 152.883 68.5475 152.957 68.5382C153.712 68.4465 154.431 68.2398 155.113 67.9182C155.495 67.7378 155.533 67.5732 155.226 67.4244C155.147 67.3868 155.026 67.353 154.863 67.323C153.587 67.0945 152.62 66.5369 151.963 65.6501C151.334 64.7994 150.912 63.7307 150.695 62.4441C150.58 61.7648 150.435 61.3078 150.26 61.0734C149.881 60.5699 149.298 60.2587 148.51 60.14C129.7 57.3128 110.849 57.031 91.9589 59.2945C91.3485 59.3682 90.9771 59.3449 90.8448 59.2246C90.6268 59.0247 90.6576 58.903 90.9373 58.8594C91.7251 58.7362 92.516 58.6302 93.3098 58.5415C99.2517 57.8757 105.21 57.4511 111.185 57.2677C112.414 57.2301 113.917 57.2219 115.696 57.2429C117.407 57.2639 119.117 57.2737 120.826 57.2722C122.694 57.2722 124.197 57.291 125.337 57.3286C135.475 57.6668 145.248 58.7354 154.656 60.5345C154.899 60.5811 155.056 60.7465 155.127 61.0305C155.135 61.0621 155.134 61.0964 155.126 61.1307C155.117 61.1651 155.101 61.1987 155.077 61.2289C154.822 61.5596 154.65 61.9301 154.563 62.3404C154.556 62.3741 154.559 62.4089 154.57 62.4414C154.581 62.4739 154.6 62.5028 154.626 62.5253C154.892 62.7508 155.186 62.9259 155.508 63.0506C156.101 63.2821 156.414 63.4076 156.449 63.4271C157.442 63.9847 158.184 64.8009 158.672 65.8756C158.818 66.1957 158.959 66.1957 159.096 65.8756C159.278 65.4472 159.268 65.0286 159.065 64.6198C159.047 64.5856 159.035 64.5496 159.031 64.5139C159.027 64.4783 159.03 64.4438 159.04 64.4124C159.115 64.1614 159.262 63.996 159.482 63.9164C159.623 63.8653 159.822 63.881 160.077 63.9637C160.676 64.1591 161.293 64.2493 161.929 64.2342C162.711 64.2147 163.078 64.5965 163.03 65.3796C162.998 65.8756 162.83 66.3197 162.527 66.712C162.265 67.0487 161.915 67.2087 161.478 67.1922C159.146 67.0975 158.093 68.2225 158.32 70.5673C158.393 71.3128 158.487 71.3128 158.602 70.5673C158.744 69.6609 159.308 69.21 160.296 69.2145C160.341 69.2148 160.386 69.2241 160.428 69.242C160.469 69.2598 160.507 69.2858 160.538 69.3183C160.569 69.3509 160.594 69.3894 160.61 69.4316C160.626 69.4738 160.634 69.5188 160.632 69.564C160.477 73.9168 159.959 78.2282 159.078 82.4983C158.057 87.4463 156.395 92.1658 154.092 96.6569C152.991 98.8002 152.24 100.287 151.837 101.116C151.279 102.265 150.793 103.508 150.38 104.848C150.375 104.864 150.329 104.975 150.242 105.179C150.182 105.317 150.167 105.452 150.197 105.583C150.254 105.835 150.344 105.846 150.468 105.614L152.209 102.374C152.327 102.153 152.405 102.169 152.441 102.422C152.694 104.141 152.79 105.867 152.73 107.6C152.679 109.072 152.381 110.612 151.837 112.22C151.515 113.17 151.072 113.999 150.508 114.707C150.236 115.048 149.673 115.542 148.819 116.188C147.84 116.927 147 117.705 146.298 118.519C145.134 119.869 144.278 121.394 143.731 123.094C143.648 123.352 143.697 123.403 143.875 123.247C143.907 123.218 143.939 123.182 143.972 123.136C144.745 122.078 145.765 121.009 147.031 119.928C147.781 119.286 148.52 118.834 149.248 118.571C149.283 118.558 149.32 118.554 149.355 118.558C149.39 118.563 149.422 118.577 149.448 118.598C149.711 118.809 149.812 119.125 149.75 119.547C149.538 120.981 149.306 122.149 149.054 123.051C148.685 124.366 148.134 125.582 147.4 126.699C146.779 127.644 146.1 128.49 145.362 129.235C144.598 130.009 143.727 130.674 142.75 131.23C142.72 131.247 142.687 131.258 142.653 131.262C142.619 131.266 142.584 131.263 142.551 131.253C142.518 131.244 142.487 131.227 142.461 131.206C142.434 131.184 142.412 131.157 142.396 131.127C142.112 130.59 141.895 130.017 141.744 129.409C141.64 128.986 141.535 128.385 141.428 127.605C141.155 125.613 141.218 123.581 141.618 121.506C142.457 117.151 143.554 113.011 144.908 109.088C144.962 108.935 144.991 108.813 144.994 108.721C145.002 108.458 144.884 108.388 144.642 108.511C144.549 108.558 144.473 108.638 144.414 108.75C142.988 111.501 141.853 114.16 141.011 116.729C139.718 120.67 138.673 124.884 137.876 129.37C137.773 129.955 137.602 130.443 137.364 130.836C137.031 131.386 136.625 131.921 136.149 132.441C133.473 135.358 130.151 136.904 126.183 137.076C125.21 137.118 124.224 136.986 123.224 136.68C122.311 136.401 121.516 135.958 120.838 135.349C120.26 134.832 119.739 134.113 119.273 133.192C118.539 131.734 118.098 130.173 117.951 128.509C117.919 128.151 117.836 127.545 117.701 126.69C117.695 126.653 117.681 126.62 117.66 126.592C117.638 126.564 117.61 126.543 117.579 126.532C117.386 126.46 117.248 126.512 117.164 126.687C117.125 126.773 117.108 126.901 117.112 127.071C117.129 127.625 117.126 128.18 117.105 128.735C117.041 130.48 116.571 132.038 115.696 133.41C114.903 134.652 113.831 135.585 112.48 136.211C111.048 136.873 109.508 137.143 107.859 137.02C105.23 136.823 102.862 135.884 100.755 134.202C98.9007 132.723 97.628 130.969 96.9363 128.94C96.7845 128.495 96.5364 127.217 96.1921 125.107C95.2343 119.232 93.273 113.695 90.3081 108.498C90.2921 108.469 90.2667 108.446 90.2367 108.435C90.2068 108.423 90.1744 108.423 90.1457 108.435C89.9337 108.52 89.8803 108.692 89.9856 108.951C91.9988 113.894 93.258 118.948 93.7632 124.113C94.0052 126.591 93.603 128.995 92.5566 131.323C92.5507 131.336 92.5421 131.347 92.5314 131.357C92.5207 131.366 92.5081 131.373 92.4945 131.378C92.4809 131.382 92.4665 131.383 92.4523 131.381C92.4382 131.38 92.4245 131.375 92.4122 131.368C88.2415 128.867 85.8471 125.172 85.2292 120.282C85.169 119.806 85.1788 119.273 85.2585 118.684C85.2652 118.637 85.2903 118.594 85.3284 118.565C85.3664 118.537 85.4142 118.524 85.4615 118.53C85.9426 118.598 86.3839 118.76 86.7853 119.017C88.591 120.176 90.0014 121.702 91.0162 123.594C91.1846 123.908 91.2959 123.889 91.35 123.536C91.3981 123.224 91.3357 122.875 91.1628 122.487C90.6291 121.288 89.9562 120.172 89.1443 119.139ZM112.505 120.647C111.057 119.69 109.547 118.844 107.976 118.109C106.612 117.472 105.928 117.151 105.924 117.148C102.98 115.641 100.375 113.676 98.1091 111.253C97.9377 111.069 97.7941 110.957 97.6783 110.917C97.4964 110.851 97.3039 110.858 97.101 110.939C97.0719 110.951 97.0457 110.969 97.024 110.991C97.0023 111.013 96.9856 111.04 96.9752 111.069C96.9647 111.099 96.9606 111.13 96.9633 111.161C96.9659 111.192 96.9752 111.221 96.9905 111.248C99.584 115.804 103.395 118.849 108.425 120.384C109.043 120.573 109.664 120.748 110.288 120.909C110.3 120.914 110.533 120.963 110.989 121.058C111.825 121.234 112.629 121.655 113.4 122.323C113.568 122.468 113.759 122.568 113.973 122.622C114.254 122.693 114.37 122.624 114.322 122.415C114.304 122.332 114.255 122.242 114.173 122.145C113.692 121.564 113.136 121.065 112.505 120.647ZM136.674 111.749C134.896 113.658 132.876 115.236 130.617 116.483C130.358 116.625 129.291 117.112 127.414 117.944C126.35 118.418 125.277 118.966 124.196 119.59C122.664 120.472 121.344 121.543 120.236 122.803C120.207 122.835 120.185 122.87 120.171 122.904C120.157 122.938 120.152 122.97 120.154 122.999C120.163 123.095 120.233 123.105 120.362 123.028C122.279 121.884 124.385 121.012 126.679 120.411C130.651 119.369 133.82 117.213 136.185 113.942C136.639 113.317 136.931 112.89 137.062 112.66C137.321 112.207 137.51 111.722 137.628 111.203C137.687 110.946 137.605 110.888 137.382 111.027C137.217 111.13 137.074 111.256 136.952 111.406C136.776 111.626 136.683 111.74 136.674 111.749ZM104.755 132.844C104.805 132.725 104.802 132.585 104.749 132.433C104.695 132.282 104.592 132.121 104.443 131.961C104.295 131.8 104.105 131.643 103.884 131.498C103.663 131.353 103.416 131.223 103.157 131.116C102.898 131.009 102.631 130.926 102.372 130.872C102.114 130.819 101.868 130.796 101.65 130.804C101.431 130.813 101.244 130.853 101.099 130.922C100.954 130.992 100.854 131.089 100.804 131.208C100.755 131.328 100.757 131.467 100.811 131.619C100.864 131.77 100.968 131.931 101.116 132.091C101.265 132.252 101.455 132.409 101.675 132.554C101.896 132.699 102.143 132.829 102.403 132.936C102.662 133.044 102.929 133.127 103.187 133.18C103.446 133.234 103.691 133.257 103.91 133.248C104.128 133.24 104.315 133.199 104.46 133.13C104.605 133.061 104.705 132.964 104.755 132.844ZM130.427 132.946C130.603 133.105 130.809 133.186 131.045 133.187C132.257 133.199 133.331 132.71 134.268 131.72C134.342 131.641 134.382 131.536 134.38 131.428C134.377 131.32 134.332 131.217 134.254 131.142C134.005 130.905 133.703 130.791 133.348 130.802C133.197 130.806 132.893 130.853 132.434 130.942C131.699 131.083 131.038 131.394 130.452 131.875C130.03 132.222 130.021 132.579 130.427 132.946Z" fill="white"/>
<path d="M209.93 68.4435C209.547 68.3984 209.39 68.1864 209.459 67.8077C209.937 65.1759 210.56 62.5794 211.329 60.0182C211.333 60.0032 211.359 59.895 211.405 59.6936C211.505 59.2637 211.761 59.1435 212.174 59.3328C212.325 59.402 212.405 59.4388 212.416 59.4433C213.647 59.9438 214.822 60.4827 215.941 61.0598C215.996 61.0882 216.04 61.1336 216.067 61.1889C216.094 61.2443 216.102 61.3066 216.089 61.3664L214.468 69.5166C214.46 69.5567 214.442 69.5941 214.415 69.6255C214.389 69.6568 214.355 69.6811 214.317 69.6961C214.279 69.7111 214.238 69.7164 214.197 69.7114C214.157 69.7064 214.118 69.6914 214.085 69.6677C213.614 69.331 213.113 69.0612 212.58 68.8583C212.245 68.7305 211.807 68.6404 211.268 68.5878C210.817 68.5427 210.371 68.4946 209.93 68.4435Z" fill="white"/>
<path d="M18.8202 61.2921C18.8184 61.2622 18.8255 61.2325 18.8408 61.2067C18.8561 61.181 18.8788 61.1604 18.9059 61.1478C20.3117 60.497 21.6754 59.9491 22.997 59.5042C23.0352 59.4915 23.0757 59.4867 23.1158 59.4903C23.1559 59.4938 23.1947 59.5056 23.2299 59.5249C23.2651 59.5442 23.2959 59.5706 23.3202 59.6023C23.3446 59.6341 23.362 59.6705 23.3714 59.7094C23.9638 62.1278 24.5471 64.5311 25.1215 66.9194C25.1876 67.193 25.2147 67.4741 25.2027 67.7626C25.2004 67.8197 25.176 67.8736 25.1348 67.9131C25.0936 67.9526 25.0388 67.9746 24.9817 67.9746C24.1728 67.9761 23.4466 68.1775 22.8031 68.5788C22.1776 68.9681 21.4341 69.183 20.5726 69.2236C20.5282 69.2254 20.4844 69.2127 20.4478 69.1875C20.4112 69.1623 20.3837 69.1259 20.3696 69.0838C19.472 66.4745 18.9556 63.8773 18.8202 61.2921Z" fill="white"/>
<path d="M48.7231 95.755C48.5742 95.6243 48.4389 95.4777 48.3171 95.3154C43.5299 88.9245 39.7794 81.9211 37.0655 74.3053C37.0487 74.2576 37.0495 74.2056 37.0677 74.1585C37.0859 74.1113 37.1203 74.0723 37.1648 74.0483C38.6262 73.2802 40.1237 72.5497 41.6573 71.8568C41.6648 71.8523 41.9212 71.7276 42.4263 71.4826C42.9 71.2526 43.3946 71.0738 43.9103 70.946C43.9432 70.9385 43.9776 70.9427 44.0077 70.958C44.0378 70.9732 44.0616 70.9985 44.0749 71.0294C46.0806 75.7129 48.2352 80.3249 50.5386 84.8656C52.2766 88.291 54.474 91.3361 57.1308 94.001C57.1548 94.0251 57.1723 94.055 57.1818 94.0877C57.1912 94.1204 57.1923 94.155 57.1849 94.1882C57.1775 94.2214 57.1618 94.2523 57.1394 94.2779C57.1169 94.3035 57.0883 94.323 57.0563 94.3347C55.628 94.8472 54.2169 95.3928 52.8232 95.9715C52.3917 96.1518 51.9489 96.2984 51.4948 96.4111C50.4439 96.6711 49.5199 96.4524 48.7231 95.755Z" fill="white"/>
<path d="M38.1841 93.0383C34.5261 87.916 31.6829 82.3593 29.6547 76.3682C29.5539 76.0691 29.6569 75.8805 29.9636 75.8023C31.0176 75.5348 32.0573 75.1943 33.0827 74.781C33.4465 74.6337 33.851 74.3038 34.296 73.7912C34.9516 73.0397 35.4154 73.0758 35.6875 73.8995C35.7973 74.2361 35.8537 74.4067 35.8567 74.4112C38.124 80.3302 40.8739 86.0161 44.1065 91.4691C44.735 92.5288 45.4153 93.5441 46.1475 94.515C46.1695 94.5448 46.1836 94.5797 46.1885 94.6164C46.1934 94.6531 46.1888 94.6904 46.1753 94.7249C46.1618 94.7594 46.1397 94.7899 46.1112 94.8135C46.0827 94.8371 46.0486 94.8531 46.0122 94.86C45.1913 95.0058 44.4102 95.2545 43.669 95.6062C42.2797 96.2676 41.1047 96.23 40.144 95.4935C39.8403 95.2605 39.187 94.4421 38.1841 93.0383Z" fill="white"/>
<path d="M196.489 93.7192C195.979 94.4542 195.28 95.1117 194.392 95.6919C193.91 96.0045 193.426 96.1075 192.937 96.0008C191.539 95.6972 190.21 95.2771 188.952 94.7405C188.926 94.7296 188.903 94.7131 188.884 94.6922C188.865 94.6713 188.851 94.6465 188.843 94.6196C188.835 94.5928 188.833 94.5644 188.837 94.5366C188.841 94.5087 188.851 94.4822 188.866 94.4587C191.524 90.426 193.863 86.2619 195.882 81.9662C197.163 79.2382 198.36 76.4741 199.473 73.674C199.656 73.2126 199.898 73.1013 200.199 73.3403C200.282 73.405 200.407 73.574 200.575 73.8476C201.013 74.557 201.677 74.8982 202.567 74.8712C202.64 74.8682 202.713 74.8862 202.774 74.923C203.561 75.3995 204.385 75.6911 205.246 75.7978C205.283 75.8021 205.318 75.8145 205.349 75.8342C205.38 75.8539 205.406 75.8804 205.425 75.9116C205.444 75.9428 205.456 75.978 205.46 76.0145C205.464 76.051 205.459 76.0879 205.447 76.1224C203.349 81.8971 200.632 87.3583 197.294 92.5062C196.939 93.0533 196.671 93.4576 196.489 93.7192Z" fill="white"/>
<path d="M197.849 94.6165C197.626 94.4226 197.595 94.2016 197.756 93.9536C201.503 88.2286 204.508 82.1255 206.771 75.6445C206.95 75.1319 207.184 75.1049 207.474 75.5633C207.922 76.2667 208.562 76.7379 209.394 76.9769C209.464 76.9979 209.526 77.034 209.578 77.0851C209.872 77.3737 210.209 77.5924 210.591 77.7412C210.627 77.7553 210.664 77.7618 210.701 77.7603C210.737 77.7587 210.771 77.7491 210.801 77.7322L211.712 77.2091C211.957 77.0678 212.034 77.1257 211.942 77.3827C209.905 83.0552 207.231 88.4067 203.92 93.4373C203.718 93.7425 203.434 94.0949 203.065 94.4947C202.68 94.9141 202.339 95.2102 202.041 95.383C201.276 95.8294 200.46 95.891 199.594 95.5679C199.268 95.4477 198.964 95.3176 198.683 95.1779C198.39 95.0306 198.112 94.8434 197.849 94.6165Z" fill="white"/>
<path d="M31.6167 94.2535C30.68 93.1668 29.7358 91.7818 28.7841 90.0984C28.1571 88.9892 27.4565 87.6605 26.6822 86.1124C25.4117 83.5692 24.2901 80.9036 23.3173 78.1155C23.3094 78.0927 23.3067 78.0684 23.3094 78.0444C23.312 78.0203 23.32 77.9972 23.3328 77.9767C23.3455 77.9562 23.3627 77.9388 23.383 77.9257C23.4034 77.9127 23.4264 77.9043 23.4504 77.9013C24.7554 77.7315 25.8718 77.264 26.7994 76.499C27.1197 76.236 27.4723 75.9647 27.8572 75.6851C27.8772 75.6707 27.9003 75.6612 27.9246 75.6572C27.9489 75.6532 27.9738 75.6548 27.9974 75.662C28.021 75.6692 28.0425 75.6818 28.0605 75.6987C28.0784 75.7156 28.0922 75.7364 28.1007 75.7595C30.4883 82.1444 33.5134 88.2226 37.176 93.9943C37.3744 94.3069 37.3218 94.5699 37.0181 94.7834C34.9598 96.2218 33.1593 96.0451 31.6167 94.2535Z" fill="white"/>
<path d="M115.851 137.484C115.279 137.037 115.212 136.585 115.651 136.129C115.792 135.984 115.866 135.906 115.874 135.897C116.433 135.236 116.813 134.483 117.013 133.638C117.014 133.631 117.032 133.517 117.065 133.298C117.107 133.024 117.225 132.768 117.419 132.529C117.499 132.43 117.557 132.441 117.595 132.563C118.065 134.069 118.744 135.431 119.631 136.648C119.652 136.677 119.666 136.709 119.67 136.743C119.674 136.777 119.668 136.81 119.654 136.84C119.532 137.091 119.36 137.295 119.137 137.453C118.998 137.552 118.773 137.681 118.463 137.841C117.597 138.289 116.726 138.17 115.851 137.484Z" fill="white"/>
</svg>
